<svg width="99" height="92" viewBox="0 0 99 92" fill="none" xmlns="http://www.w3.org/2000/svg">
<g clip-path="url(#clip0_0_107)">
<path d="M18.632 13.3087C17.5715 13.4076 16.5599 13.4899 15.5566 13.6134C10.8089 14.1982 5.35147 17.0724 3.88311 22.9279C3.05104 26.2469 2.03951 29.5246 0.89745 32.753C-0.668799 37.1838 -0.252764 41.4498 2.65948 44.9582C4.64176 47.3383 4.39704 49.3807 3.49155 51.8184C3.10815 52.8397 2.68395 53.8938 2.56975 54.9562C2.38212 56.8339 2.00688 58.8352 2.43923 60.6058C4.1931 67.8779 9.38946 71.8722 16.1765 73.6593C19.203 74.4581 21.8216 74.9111 21.9684 78.7324C21.9766 79.0454 22.2539 79.3419 22.4089 79.6548C27.0016 88.821 41.0897 94.2154 50.6095 87.0669C54.2968 88.6069 57.5924 90.4435 61.1246 91.3823C69.9348 93.7295 77.2358 89.4058 79.6015 80.7172C80.1072 78.8642 80.9312 78.2795 82.8074 78.2465C88.3871 78.1395 93.4448 74.4664 94.9784 69.5827C96.1287 65.926 97.2055 62.253 98.2659 58.5716C99.359 54.7915 99.4406 50.8878 96.9852 47.7665C94.7092 44.8758 94.3095 42.2404 95.9247 39.0944C96.0145 38.9132 96.0226 38.6991 96.0879 38.5015C98.4291 31.3941 95.4026 25.621 90.1573 21.5938C86.6088 18.8678 82.4974 17.5665 78.1249 17.2865C75.3514 3.36011 60.5128 -2.50364 47.836 5.24607C43.5206 1.6224 38.5527 -0.271791 32.875 0.0329266C26.7813 0.362351 21.1853 3.52483 19.6517 10.1298C19.4069 11.1922 18.9909 12.2052 18.632 13.3087Z" fill="white"/>
<path d="M18.6318 13.3087C18.9907 12.2052 19.4068 11.184 19.6515 10.1298C21.1933 3.52484 26.7894 0.362367 32.8749 0.0329426C38.5525 -0.271775 43.5123 1.63065 47.8358 5.22961C60.5208 -2.5201 75.3512 3.34366 78.1248 17.2701C82.4972 17.5501 86.6087 18.8513 90.1572 21.5773C95.3943 25.5963 98.4289 31.3777 96.0877 38.485C96.0225 38.6827 96.0143 38.8968 95.9246 39.078C94.3094 42.2157 94.7173 44.8594 96.9851 47.7501C99.4405 50.8714 99.3589 54.775 98.2658 58.5552C97.2053 62.2365 96.1285 65.9096 94.9783 69.5662C93.4447 74.4499 88.387 78.123 82.8072 78.2301C80.931 78.263 80.1071 78.856 79.6013 80.7007C77.2356 89.3975 69.9346 93.713 61.1245 91.3659C57.5923 90.427 54.2884 88.5987 50.6094 87.0504C41.0895 94.1989 27.0014 88.8046 22.4088 79.6384C22.2538 79.3336 21.9846 79.0289 21.9682 78.716C21.8214 74.9029 19.211 74.4417 16.1764 73.6428C9.3893 71.8557 4.19295 67.8614 2.43907 60.5894C2.01488 58.8187 2.38197 56.8175 2.56959 54.9398C2.67564 53.8691 3.10799 52.8232 3.4914 51.802C4.39689 49.356 4.64161 47.3218 2.65933 44.9417C-0.261074 41.4334 -0.668952 37.1755 0.897298 32.7366C2.0312 29.5164 3.05089 26.2304 3.88296 22.9115C5.35132 17.0477 10.8087 14.1817 15.5564 13.597C16.5598 13.4735 17.5713 13.3993 18.6318 13.2923V13.3087ZM90.1001 42.611C90.4916 42.2816 90.7527 42.0675 91.0056 41.8451C96.0632 37.4473 96.7322 32.0777 92.7513 26.601C89.2354 21.7667 84.3327 19.4937 78.5001 19.0325C77.5783 18.9584 76.4607 19.3866 76.3301 17.6819C75.7917 10.7969 71.4356 6.90144 65.5295 4.63665C59.2319 2.23185 53.1464 2.56951 47.8848 7.53558C43.5368 3.36836 38.4954 1.4577 32.6302 1.71301C27.3767 1.9436 22.7432 5.09784 21.6419 9.58625C21.2014 11.3816 21.3809 13.3335 21.2749 15.2029C11.9018 15.5159 8.33698 16.8254 6.34654 21.2973C3.13247 28.5199 7.49675 33.1401 12.4402 37.4803C12.0323 37.8344 11.7876 38.0568 11.5347 38.2626C7.29282 41.7298 6.11813 46.0782 8.44303 51.0361C11.135 56.7763 16.0785 59.8317 22.0417 60.6306C25.1171 61.0423 26.1204 61.9318 26.7894 64.9625C28.0946 70.8262 34.898 75.85 41.2445 76.55C46.2696 77.11 50.8215 76.1794 54.6066 72.5393C55.0553 72.8604 55.406 73.0663 55.7079 73.3299C59.6316 76.7229 64.1672 78.3454 69.3391 78.3124C75.0576 78.2712 79.9684 74.9523 81.0207 70.0274C81.3797 68.3556 81.0778 66.5437 81.0778 64.699C87.6691 65.2507 93.8933 64.6331 96.5364 57.814C99.0815 51.242 95.1088 46.6136 90.1001 42.611ZM24.9947 66.0661C24.3666 68.1826 23.9505 70.0439 23.249 71.7816C22.5148 73.6181 22.5719 75.3476 23.1592 77.1677C26.1857 86.4904 39.8659 91.6459 48.2192 86.5563C49.0595 86.0457 50.0547 85.3456 50.3728 84.4974C51.3273 81.9855 51.988 79.3666 52.9017 76.3029C47.3382 79.0207 42.0929 79.2183 36.766 77.2171C31.4392 75.2158 27.4501 71.7733 24.9865 66.0578L24.9947 66.0661ZM78.7366 77.11C70.4078 82.109 62.6907 80.5278 55.0879 75.4135C54.1661 78.3948 53.2198 81.2278 52.453 84.1103C52.3143 84.6374 52.714 85.6421 53.1709 85.9468C54.8595 87.0586 56.597 88.1622 58.457 88.9117C68.6621 92.9883 77.2764 88.0304 78.7366 77.11ZM21.1362 72.671C22.1232 69.3768 23.0695 66.1814 24.0566 62.8789C15.589 61.8247 9.28326 58.0281 5.99576 49.9737C0.416002 60.9765 8.54908 73.2887 21.1362 72.671ZM95.0762 63.2001C91.3563 66.132 87.3347 66.7414 83.4843 66.799C82.7093 70.1921 81.9915 73.3381 81.2736 76.4759C88.4849 77.0524 92.3271 73.4534 95.0843 63.2083L95.0762 63.2001ZM3.76875 29.747C1.00335 35.5861 0.660729 41.3016 4.97607 45.1476C6.33838 42.5616 7.74148 39.9015 9.09563 37.3403C7.37439 34.886 5.52263 32.2424 3.76875 29.747Z" fill="black"/>
<path d="M90.1001 42.611C95.1089 46.6218 99.0898 51.2502 96.5364 57.814C93.8934 64.633 87.661 65.2425 81.0779 64.6989C81.0779 66.5437 81.3797 68.3555 81.0208 70.0274C79.9685 74.9523 75.0576 78.2712 69.3392 78.3124C64.1673 78.3536 59.6317 76.7229 55.7079 73.3298C55.4061 73.0663 55.0553 72.8604 54.6067 72.5392C50.8216 76.1876 46.2696 77.11 41.2446 76.55C34.898 75.8499 28.0946 70.8262 26.7894 64.9625C26.1123 61.9318 25.1171 61.0423 22.0417 60.6305C16.0786 59.8317 11.1351 56.7763 8.44309 51.0361C6.11819 46.0782 7.29288 41.7298 11.5348 38.2626C11.7877 38.0567 12.0243 37.8344 12.4403 37.4802C7.48866 33.1401 3.13253 28.5199 6.3466 21.2973C8.33704 16.8253 11.9019 15.5159 21.2749 15.2029C21.381 13.3334 21.2015 11.3816 21.642 9.58622C22.7433 5.08958 27.3768 1.93534 32.6302 1.71298C38.4873 1.45768 43.5369 3.36834 47.8848 7.53556C53.1465 2.56948 59.232 2.22359 65.5296 4.63662C71.4357 6.89318 75.7918 10.7886 76.3302 17.6818C76.4607 19.3866 77.5783 18.9666 78.5001 19.0325C84.3328 19.4854 89.2436 21.7667 92.7514 26.601C96.7241 32.0694 96.0633 37.4391 91.0056 41.8451C90.7527 42.0675 90.4917 42.2816 90.1001 42.611ZM49.2879 45.4852C48.5782 45.2629 48.0072 45.0982 47.4525 44.9005C44.1895 43.7475 40.9509 42.5369 37.6716 41.4498C35.8525 40.8486 34.017 40.7992 32.6955 42.5616C31.0803 44.7193 32.4018 47.783 35.5669 48.9771C40.8938 50.9949 46.2533 52.922 51.621 54.8327C54.3538 55.8045 56.3768 54.915 57.2823 52.1643C59.6888 44.8346 62.03 37.4802 64.2162 30.0764C64.5262 29.0223 64.1265 27.4657 63.5147 26.4939C62.34 24.6327 60.3985 23.9656 58.1878 24.2786C56.1647 24.5586 55.4714 26.0986 54.933 27.7787C53.0649 33.626 51.205 39.4815 49.2879 45.4852Z" fill="#F5C219"/>
<path d="M24.9948 66.066C27.4583 71.7816 31.4474 75.224 36.7743 77.2253C42.1011 79.2265 47.3464 79.0289 52.9099 76.3111C51.9881 79.3666 51.3355 81.9937 50.381 84.5056C50.0629 85.3538 49.0677 86.0539 48.2275 86.5645C39.8741 91.6541 26.2021 86.4986 23.1675 77.1759C22.572 75.3558 22.5149 73.6263 23.2572 71.7898C23.9588 70.0521 24.3666 68.1908 25.0029 66.0743L24.9948 66.066Z" fill="#F5C219"/>
<path d="M78.7366 77.11C77.2764 88.0222 68.662 92.9882 58.4569 88.9116C56.597 88.1704 54.8595 87.0586 53.1709 85.9468C52.7059 85.6421 52.3062 84.6373 52.453 84.1103C53.2198 81.2278 54.1661 78.3947 55.0879 75.4135C62.6907 80.5195 70.4077 82.109 78.7366 77.11Z" fill="#F5C219"/>
<path d="M21.1362 72.671C8.54913 73.2886 0.416055 60.9764 5.99582 49.9736C9.28331 58.0281 15.5891 61.8329 24.0566 62.8788C23.0696 66.1895 22.1151 69.3767 21.1362 72.671Z" fill="#F5C219"/>
<path d="M95.0762 63.2C92.319 73.4451 88.4849 77.0441 81.2655 76.4676C81.9834 73.3298 82.7012 70.192 83.4762 66.7907C87.3266 66.7331 91.3564 66.1236 95.0681 63.1918L95.0762 63.2Z" fill="#F5C219"/>
<path d="M3.76874 29.7469C5.51446 32.2423 7.37438 34.886 9.09562 37.3402C7.74147 39.9015 6.33837 42.5616 4.97606 45.1475C0.660715 41.2933 1.00333 35.586 3.76874 29.7469Z" fill="#F5C219"/>
<path d="M49.2879 45.4852C51.2049 39.4815 53.0648 33.626 54.9329 27.7787C55.4713 26.0986 56.1647 24.5586 58.1878 24.2785C60.3985 23.9656 62.34 24.6409 63.5146 26.4939C64.1265 27.4657 64.5262 29.0223 64.2162 30.0764C62.03 37.4802 59.6888 44.8346 57.2823 52.1643C56.3768 54.915 54.3537 55.8045 51.6209 54.8327C46.2533 52.922 40.8938 50.9866 35.5669 48.9771C32.4018 47.783 31.0884 44.7193 32.6954 42.5616C34.017 40.7992 35.8524 40.8486 37.6715 41.4498C40.9509 42.5369 44.1976 43.7475 47.4524 44.9005C48.0071 45.0982 48.5782 45.2546 49.2879 45.4852ZM50.2831 47.7171C46.0575 46.1853 42.1337 44.7111 38.1691 43.3522C36.7008 42.8498 34.9795 41.9028 33.8375 43.8958C33.1196 45.1476 34.123 46.5806 36.5539 47.5194C41.7421 49.5207 46.963 51.4314 52.2001 53.3091C54.0519 53.9762 55.1858 53.3667 55.7976 51.4643C58.1062 44.3076 60.3577 37.1261 62.6663 29.9694C63.1476 28.4787 62.6092 27.4328 61.4589 26.601C59.3951 25.1021 57.372 25.7445 56.5807 28.1822C54.4924 34.606 52.4367 41.038 50.2913 47.7171H50.2831Z" fill="black"/>
<path d="M50.2831 47.7171C52.4285 41.038 54.4842 34.606 56.5726 28.1822C57.3639 25.7445 59.3951 25.1021 61.4508 26.601C62.601 27.4328 63.1394 28.4787 62.6581 29.9694C60.3495 37.1261 58.098 44.3076 55.7894 51.4643C55.1776 53.3585 54.0437 53.9679 52.192 53.3091C46.963 51.4314 41.734 49.5207 36.5458 47.5194C34.1148 46.5806 33.1115 45.1476 33.8293 43.8958C34.9714 41.911 36.6845 42.8499 38.161 43.3522C42.1256 44.7111 46.0493 46.1853 50.275 47.7171H50.2831Z" fill="white"/>
</g>
<defs>
<clipPath id="clip0_0_107">
<rect width="99" height="92" fill="white"/>
</clipPath>
</defs>
</svg>
